<svg width="512" height="512" viewBox="0 0 512 512" fill="none" xmlns="http://www.w3.org/2000/svg">
<path d="M94.7071 400.803V403.299V404.547C92.6277 402.882 90.5472 401.635 87.6347 400.803C78.897 399.553 73.904 399.97 66.814 404.547C55.1794 414.949 56.4232 431.593 65.5657 442.827C74.7361 451.98 87.6347 450.315 96.3714 441.995V433.673C96.3714 432.009 96.7718 429.512 100.517 429.512V428.264H87.202V429.512C89.6985 429.928 90.5304 432.009 90.5304 433.673V441.995C89.2824 446.156 80.5447 448.335 75.9834 446.572C63.069 441.579 61.4 407.46 75.5673 401.635C79.2962 400.803 81.3766 401.219 84.305 401.635C91.7945 404.131 94.7071 409.124 94.7071 414.533H96.3714V400.803H94.7071Z" fill="#FF874B"/>
<path d="M119.257 401.218H103.862L105.11 402.05C107.607 402.466 108.023 404.547 108.023 406.211V439.913C108.023 444.074 107.191 447.403 101.781 447.403H136.316V434.92H135.484C135.068 441.161 130.907 445.738 123.834 446.572H113.848V406.627C113.848 404.962 115.096 402.882 117.176 402.05L119.257 401.218Z" fill="#FF874B"/>
<path d="M147.967 435.752C145.47 441.995 143.39 444.906 139.229 446.572H154.624C150.463 445.738 146.302 445.322 147.967 440.745L159.201 410.371L170.019 439.913C172.099 442.827 170.019 445.738 166.69 446.572H182.917C180.421 445.738 179.173 444.49 177.924 441.995L165.858 404.962C165.858 403.299 165.858 402.05 168.354 401.218H160.449L147.967 435.752Z" fill="#FF874B"/>
<path d="M189.575 404.13C195.4 398.721 207.882 399.553 214.956 404.13V414.116C213.707 409.123 212.043 404.13 206.218 402.466C202.473 401.396 197.48 401.218 194.568 404.13C191.239 407.459 191.239 410.371 194.568 414.532C202.889 422.022 212.875 424.934 216.62 434.088C217.452 441.161 215.788 445.738 207.466 448.235C198.312 449.899 193.319 448.235 186.662 444.906V433.256C189.159 441.161 190.823 444.906 197.064 446.572C201.225 447.682 204.138 447.403 207.466 446.572C213.291 444.074 213.094 436.588 209.547 433.256C195.816 420.357 179.173 417.861 189.575 404.13Z" fill="#FF874B"/>
<path d="M94.7071 400.808V403.304V404.553C92.6277 402.887 90.5472 401.64 87.6347 400.808C78.897 399.559 73.904 399.976 66.814 404.553C55.1794 414.955 56.4232 431.598 65.5657 442.832C74.7361 451.985 87.6347 450.321 96.3714 442V433.678C96.3714 432.014 96.7718 429.518 100.517 429.518V428.269H87.202V429.518C89.6985 429.934 90.5304 432.014 90.5304 433.678V442C89.2824 446.161 80.5447 448.34 75.9834 446.577C63.069 441.584 61.4 407.465 75.5673 401.64C79.2962 400.808 81.3766 401.224 84.305 401.64C91.7945 404.137 94.7071 409.13 94.7071 414.539H96.3714V400.808H94.7071Z" fill="#FF874B"/>
<path d="M119.257 401.223H103.862L105.11 402.055C107.607 402.471 108.023 404.553 108.023 406.216V439.919C108.023 444.079 107.191 447.408 101.781 447.408H136.316V434.926H135.484C135.068 441.167 130.907 445.744 123.834 446.577H113.848V406.632C113.848 404.968 115.096 402.887 117.176 402.055L119.257 401.223Z" fill="#FF874B"/>
<path d="M147.967 435.758C145.47 442 143.39 444.911 139.229 446.577H154.624C150.463 445.744 146.302 445.328 147.967 440.751L159.201 410.377L170.019 439.919C172.099 442.832 170.019 445.744 166.69 446.577H182.917C180.421 445.744 179.173 444.495 177.924 442L165.858 404.968C165.858 403.304 165.858 402.055 168.355 401.223H160.449L147.967 435.758Z" fill="#FF874B"/>
<path d="M189.575 404.135C195.4 398.726 207.882 399.559 214.956 404.135V414.121C213.707 409.128 212.043 404.135 206.218 402.471C202.473 401.401 197.48 401.223 194.568 404.135C191.239 407.464 191.239 410.377 194.568 414.538C202.889 422.027 212.875 424.94 216.62 434.093C217.452 441.167 215.788 445.744 207.466 448.24C198.312 449.904 193.319 448.24 186.662 444.911V433.261C189.159 441.167 190.823 444.911 197.064 446.577C201.225 447.687 204.138 447.408 207.466 446.577C213.291 444.079 213.094 436.593 209.547 433.261C195.816 420.363 179.173 417.866 189.575 404.135Z" fill="#FF874B"/>
<path d="M295.259 401.223H284.025C285.69 402.471 286.106 402.887 286.106 404.135V440.751C286.106 444.079 286.106 445.328 284.025 446.577H294.427C292.763 445.328 292.763 444.495 292.763 443.247V425.356H311.071V442.831C311.071 444.495 310.654 445.744 308.99 446.577H320.224L317.312 443.247V403.303L319.392 401.223H308.99L310.654 403.303V424.107H292.763V405.8C292.763 404.135 292.763 402.055 295.259 401.223Z" fill="#FF874B"/>
<path d="M346.437 399.559C315.231 399.975 316.48 448.24 346.437 447.408C374.731 448.24 380.14 399.975 346.437 399.559Z" fill="#FF874B"/>
<path d="M387.63 401.223H370.154C373.899 402.055 374.731 403.719 375.147 405.8V435.342C375.979 443.247 381.388 447.408 389.71 448.24C400.112 449.28 406.353 443.663 406.353 437.006V407.464C407.185 404.968 409.682 402.055 414.259 401.223H397.615C402.192 403.303 404.689 404.552 404.689 407.464V437.006C404.689 442.831 398.864 446.577 390.958 445.328C385.549 443.663 381.388 441.583 381.388 434.509V405.8C382.22 404.135 383.885 402.055 387.63 401.223Z" fill="#FF874B"/>
<path d="M484.16 401.223H451.29C453.787 402.055 454.619 402.887 455.451 404.135V441.999C455.451 444.495 453.787 446.16 451.29 447.408H484.16V433.677C483.328 440.335 480.416 445.328 473.758 446.16H461.276V426.188H470.846C474.174 426.188 475.007 428.268 475.423 430.349V424.523H461.276V423.691H475.423V417.034C475.423 420.779 472.926 422.027 470.014 422.443H461.276V402.055H473.342C480 402.887 482.912 408.296 484.16 412.873V401.223Z" fill="#FF874B"/>
<path d="M346.453 400.391C321.918 400.391 322.721 446.576 346.453 446.16C370.571 446.576 370.982 400.391 346.453 400.391Z" fill="white"/>
<circle cx="94.2913" cy="414.119" r="2.08041" fill="#FF874B"/>
<circle cx="86.7992" cy="430.346" r="2.08041" fill="#FF874B"/>
<circle cx="104.268" cy="403.299" r="2.08041" fill="#FF874B"/>
<circle cx="119.252" cy="403.299" r="2.08041" fill="#FF874B"/>
<circle cx="134.237" cy="434.922" r="2.08041" fill="#FF874B"/>
<circle cx="168.362" cy="403.299" r="2.08041" fill="#FF874B"/>
<circle cx="212.869" cy="413.284" r="2.08041" fill="#FF874B"/>
<circle cx="188.737" cy="433.258" r="2.08041" fill="#FF874B"/>
<path d="M225.289 404.142C231.114 398.733 243.596 399.565 250.67 404.142V414.128C249.421 409.135 247.757 404.142 241.932 402.478C238.187 401.408 233.194 401.229 230.282 404.142C226.953 407.47 226.953 410.383 230.282 414.544C238.603 422.033 248.589 424.946 252.334 434.1C253.166 441.173 251.502 445.75 243.18 448.246C234.026 449.911 229.033 448.246 222.376 444.918V433.268C224.873 441.173 226.537 444.918 232.778 446.583C236.939 447.694 239.852 447.414 243.18 446.583C249.005 444.086 248.808 436.6 245.261 433.268C231.53 420.369 214.887 417.873 225.289 404.142Z" fill="#FF874B"/>
<circle cx="248.588" cy="413.709" r="2.08041" fill="#FF874B"/>
<circle cx="284.026" cy="403.299" r="2.08041" fill="#FF874B"/>
<circle cx="319.799" cy="403.299" r="2.08041" fill="#FF874B"/>
<circle cx="370.565" cy="403.299" r="2.08041" fill="#FF874B"/>
<circle cx="387.213" cy="403.299" r="2.08041" fill="#FF874B"/>
<circle cx="451.291" cy="403.299" r="2.08041" fill="#FF874B"/>
<circle cx="224.448" cy="433.682" r="2.08041" fill="#FF874B"/>
<path d="M421.679 404.142C427.504 398.733 439.987 399.565 447.06 404.142V414.128C445.812 409.135 444.148 404.142 438.323 402.478C434.578 401.408 429.585 401.229 426.672 404.142C423.344 407.47 423.344 410.383 426.672 414.544C434.994 422.033 444.98 424.946 448.725 434.1C449.557 441.173 447.892 445.75 439.571 448.246C430.417 449.911 425.424 448.246 418.767 444.918V433.268C421.263 441.173 422.928 444.918 429.169 446.583C433.33 447.694 436.242 447.414 439.571 446.583C445.396 444.086 445.198 436.6 441.651 433.268C427.921 420.369 411.277 417.873 421.679 404.142Z" fill="#FF874B"/>
<circle cx="444.971" cy="413.709" r="2.08041" fill="#FF874B"/>
<circle cx="420.838" cy="433.682" r="2.08041" fill="#FF874B"/>
<rect x="149.633" y="295.535" width="8.32163" height="8.32163" fill="#FF874B"/>
<rect x="165.438" y="295.535" width="8.32163" height="8.32163" fill="#1339C0"/>
<rect x="149.633" y="310.516" width="8.32163" height="8.32163" fill="#1339C0"/>
<rect x="165.438" y="310.516" width="8.32163" height="8.32163" fill="#FF874B"/>
<rect x="360.164" y="295.535" width="8.32163" height="8.32163" fill="#1339C0"/>
<rect x="375.977" y="295.535" width="8.32163" height="8.32163" fill="#FF874B"/>
<rect x="360.164" y="310.516" width="8.32163" height="8.32163" fill="#FF874B"/>
<rect x="375.977" y="310.516" width="8.32163" height="8.32163" fill="#1339C0"/>
<path d="M162.943 251.013L4 322.58H26.8845C36.0383 322.58 41.0313 322.996 46.8564 320.499L163.775 266.408C166.688 265.16 168.352 265.16 170.849 266.408L245.743 305.52C249.904 307.601 252.401 308.017 255.313 306.352L264.883 300.943C268.212 299.279 268.212 298.863 264.883 297.198L173.761 251.013C170.849 248.933 166.688 248.933 162.943 251.013Z" fill="#737373"/>
<path d="M360.166 260.167L239.086 322.163H261.555C265.299 322.163 266.964 321.747 269.876 320.915L362.662 273.482C365.991 272.234 368.488 272.234 370.984 273.482L477.917 323.412L507.875 322.163L371.816 260.167C368.488 258.087 364.327 258.087 360.166 260.167Z" fill="#737373"/>
<path d="M84.7236 279.723L78.8984 281.387V204.83L109.272 184.442L138.398 205.662V216.896L151.713 208.575L166.276 221.057V196.924C166.276 194.012 166.276 192.347 169.188 189.851L197.898 169.879C200.81 167.799 202.891 168.631 204.971 169.879L215.373 177.368V125.774C215.373 122.03 214.957 119.533 217.87 117.037L226.607 111.211C229.936 108.715 232.016 106.217 232.016 102.058V88.3269C232.016 84.5822 231.184 82.0857 234.097 78.341L254.485 64.1929C259.478 60.8693 264.055 61.6977 267.383 64.1929L289.436 78.3397C294.429 80.8362 296.093 83.3327 296.093 86.6613V109.962L307.743 117.451L308.575 161.972L328.131 172.79V165.301C328.131 163.636 328.131 162.388 329.38 161.14L357.257 141.168C360.17 139.088 362.666 139.504 365.163 141.168L390.127 157.395C393.872 159.06 397.201 161.972 397.617 165.717V213.982L405.939 208.573L442.554 232.29V285.548L407.187 269.321L405.939 221.056L397.617 226.465V263.912L369.323 251.846H361.002V150.322L336.037 166.965V177.783L349.768 186.937V257.671L338.949 263.912V189.017L328.963 183.192V269.321L301.502 281.804V123.276L291.932 118.283V288.045L282.778 292.622V112.042L271.96 106.217V292.622L260.31 287.213V70.8502L240.338 84.1648V215.647H232.433V118.283L224.527 123.276V268.489L201.226 257.671V177.783L177.094 194.843V244.772L168.772 241.028L148.8 249.765V218.559L127.164 232.29V260.167L106.776 269.737V194.843L84.7236 208.989V279.723Z" fill="#E8AB16"/>
<path d="M126.329 336.312H148.797L145.469 339.225V388.323L148.797 391.235H132.154L135.067 388.323V371.679H125.081V388.323L127.993 391.235H108.438L114.679 388.323V349.627C114.679 344.634 118.84 338.393 126.329 336.312Z" fill="#737373"/>
<path d="M194.982 336.312H178.755L181.668 337.977V375.008C181.668 379 176.675 380.833 172.098 380.833L170.018 377.921V393.732L172.93 391.235C184.997 391.235 192.07 385.41 192.07 377.089V337.977L194.982 336.312Z" fill="#737373"/>
<path d="M250.737 336.312H217.035L219.115 339.225V388.739L215.787 391.235H250.737V377.089L248.241 380.833H229.933V368.351H246.577V358.365H229.933V346.715H248.241L250.737 349.211V336.312Z" fill="#737373"/>
<path d="M289.433 336.312H275.286L277.783 337.977V388.323L274.454 391.235H291.097L288.601 388.323L288.185 360.445L302.332 391.235H316.062L312.318 387.907V339.225L316.062 336.312H299.835L302.332 339.225V366.686L289.433 336.312Z" fill="#737373"/>
<path d="M360.167 336.312H338.115L340.611 338.809V388.323L338.115 391.235H360.167C368.072 391.235 370.985 384.994 370.985 379.169V347.547C370.985 342.97 367.24 336.312 360.167 336.312Z" fill="#737373"/>
<path d="M398.03 338.809L395.118 336.312H418.002C434.646 340.473 434.229 362.526 419.25 367.519L432.981 391.235H418.002L419.25 389.155L408.016 368.767V388.323L410.929 391.235H395.118L398.03 388.323V338.809Z" fill="#737373"/>
<path d="M50.9125 338.496L48 336H70.8845C87.5277 340.161 87.1116 362.213 72.1327 367.206L85.8634 390.923H70.8845L72.1327 388.842L60.8985 368.454V388.01L63.8111 390.923H48L50.9125 388.01V338.496Z" fill="#737373"/>
<path d="M125.086 351.71V360.864H135.072V346.301H129.247C125.918 346.301 125.086 349.629 125.086 351.71Z" fill="white"/>
<path d="M351.018 380.836V346.717H357.676C361.004 347.133 361.836 349.213 361.836 350.878V375.426C361.836 378.755 361.004 380.003 358.508 380.836H351.018Z" fill="white"/>
<path d="M408.021 358.367V346.717H414.679C419.672 346.717 421.336 357.119 414.679 358.367H408.021Z" fill="white"/>
<path d="M61 357.65V346H67.6573C72.6503 346 74.3146 356.402 67.6573 357.65H61Z" fill="white"/>
<path d="M469.595 336.312H492.063L488.734 339.225V388.323L492.063 391.235H475.42L478.332 388.323V371.679H468.346V388.323L471.259 391.235H451.703L457.944 388.323V349.627C457.944 344.634 462.105 338.393 469.595 336.312Z" fill="#737373"/>
<path d="M468.344 351.706V360.86H478.33V346.297H472.505C469.176 346.297 468.344 349.626 468.344 351.706Z" fill="white"/>
<rect x="292.758" y="426.186" width="18.3076" height="0.832163" fill="#FF874B"/>
<rect x="326.883" y="423.688" width="38.2795" height="0.832163" fill="#FF874B"/>
<rect x="326.883" y="425.354" width="38.2795" height="0.832163" fill="#FF874B"/>
<rect x="152.266" y="425.633" width="19.033" height="1.00174" fill="#FF874B"/>
<rect x="151.25" y="427.635" width="19.033" height="1.00174" fill="#FF874B"/>
</svg>
