<svg width="512" height="512" viewBox="0 0 512 512" fill="none" xmlns="http://www.w3.org/2000/svg">
<path d="M94.7071 400.805V403.301V404.549C92.6277 402.884 90.5472 401.637 87.6347 400.805C78.897 399.555 73.904 399.972 66.814 404.549C55.1794 414.951 56.4232 431.595 65.5657 442.829C74.7361 451.982 87.6347 450.317 96.3714 441.997V433.675C96.3714 432.011 96.7718 429.514 100.517 429.514V428.266H87.202V429.514C89.6985 429.93 90.5304 432.011 90.5304 433.675V441.997C89.2824 446.158 80.5447 448.337 75.9834 446.574C63.069 441.581 61.4 407.462 75.5673 401.637C79.2962 400.805 81.3766 401.221 84.305 401.637C91.7945 404.133 94.7071 409.126 94.7071 414.535H96.3714V400.805H94.7071Z" fill="#FF874B"/>
<path d="M119.257 401.22H103.862L105.11 402.052C107.607 402.468 108.023 404.549 108.023 406.213V439.915C108.023 444.076 107.191 447.405 101.781 447.405H136.316V434.922H135.484C135.068 441.163 130.907 445.74 123.834 446.574H113.848V406.629C113.848 404.964 115.096 402.884 117.176 402.052L119.257 401.22Z" fill="#FF874B"/>
<path d="M147.967 435.754C145.47 441.997 143.39 444.908 139.229 446.574H154.624C150.463 445.74 146.302 445.324 147.967 440.747L159.201 410.373L170.019 439.915C172.099 442.829 170.019 445.74 166.69 446.574H182.917C180.421 445.74 179.173 444.492 177.924 441.997L165.858 404.964C165.858 403.301 165.858 402.052 168.354 401.22H160.449L147.967 435.754Z" fill="#FF874B"/>
<path d="M189.575 404.132C195.4 398.723 207.882 399.555 214.956 404.132V414.118C213.707 409.125 212.043 404.132 206.218 402.468C202.473 401.398 197.48 401.22 194.568 404.132C191.239 407.461 191.239 410.373 194.568 414.534C202.889 422.024 212.875 424.936 216.62 434.09C217.452 441.163 215.788 445.74 207.466 448.237C198.312 449.901 193.319 448.237 186.662 444.908V433.258C189.159 441.163 190.823 444.908 197.064 446.574C201.225 447.684 204.138 447.405 207.466 446.574C213.291 444.076 213.094 436.59 209.547 433.258C195.816 420.359 179.173 417.863 189.575 404.132Z" fill="#FF874B"/>
<path d="M94.7071 400.806V403.302V404.551C92.6277 402.885 90.5472 401.638 87.6347 400.806C78.897 399.557 73.904 399.974 66.814 404.551C55.1794 414.953 56.4232 431.596 65.5657 442.83C74.7361 451.983 87.6347 450.319 96.3714 441.998V433.676C96.3714 432.012 96.7718 429.516 100.517 429.516V428.267H87.202V429.516C89.6985 429.932 90.5304 432.012 90.5304 433.676V441.998C89.2824 446.159 80.5447 448.338 75.9834 446.575C63.069 441.582 61.4 407.463 75.5673 401.638C79.2962 400.806 81.3766 401.222 84.305 401.638C91.7945 404.135 94.7071 409.128 94.7071 414.537H96.3714V400.806H94.7071Z" fill="#FF874B"/>
<path d="M119.257 401.221H103.862L105.11 402.053C107.607 402.469 108.023 404.551 108.023 406.214V439.917C108.023 444.077 107.191 447.406 101.781 447.406H136.316V434.924H135.484C135.068 441.165 130.907 445.742 123.834 446.575H113.848V406.63C113.848 404.966 115.096 402.885 117.176 402.053L119.257 401.221Z" fill="#FF874B"/>
<path d="M147.967 435.756C145.47 441.998 143.39 444.91 139.229 446.575H154.624C150.463 445.742 146.302 445.326 147.967 440.749L159.201 410.375L170.019 439.917C172.099 442.83 170.019 445.742 166.69 446.575H182.917C180.421 445.742 179.173 444.493 177.924 441.998L165.858 404.966C165.858 403.302 165.858 402.053 168.355 401.221H160.449L147.967 435.756Z" fill="#FF874B"/>
<path d="M189.575 404.134C195.4 398.724 207.882 399.557 214.956 404.134V414.119C213.707 409.127 212.043 404.134 206.218 402.469C202.473 401.399 197.48 401.221 194.568 404.134C191.239 407.462 191.239 410.375 194.568 414.536C202.889 422.025 212.875 424.938 216.62 434.091C217.452 441.165 215.788 445.742 207.466 448.238C198.312 449.903 193.319 448.238 186.662 444.91V433.259C189.159 441.165 190.823 444.91 197.064 446.575C201.225 447.685 204.138 447.406 207.466 446.575C213.291 444.077 213.094 436.591 209.547 433.259C195.816 420.361 179.173 417.864 189.575 404.134Z" fill="#FF874B"/>
<path d="M295.259 401.221H284.025C285.69 402.469 286.106 402.885 286.106 404.134V440.749C286.106 444.077 286.106 445.326 284.025 446.575H294.427C292.763 445.326 292.763 444.493 292.763 443.245V425.354H311.071V442.829C311.071 444.493 310.654 445.742 308.99 446.575H320.224L317.312 443.245V403.301L319.392 401.221H308.99L310.654 403.301V424.105H292.763V405.798C292.763 404.134 292.763 402.053 295.259 401.221Z" fill="#FF874B"/>
<path d="M346.437 399.557C315.231 399.973 316.48 448.238 346.437 447.406C374.731 448.238 380.14 399.973 346.437 399.557Z" fill="#FF874B"/>
<path d="M387.63 401.221H370.154C373.899 402.053 374.731 403.717 375.147 405.798V435.34C375.979 443.245 381.388 447.406 389.71 448.238C400.112 449.278 406.353 443.661 406.353 437.004V407.462C407.185 404.966 409.682 402.053 414.259 401.221H397.615C402.192 403.301 404.689 404.55 404.689 407.462V437.004C404.689 442.829 398.864 446.575 390.958 445.326C385.549 443.661 381.388 441.581 381.388 434.507V405.798C382.22 404.134 383.885 402.053 387.63 401.221Z" fill="#FF874B"/>
<path d="M484.16 401.221H451.29C453.787 402.053 454.619 402.885 455.451 404.134V441.997C455.451 444.493 453.787 446.158 451.29 447.406H484.16V433.675C483.328 440.333 480.416 445.326 473.758 446.158H461.276V426.186H470.846C474.174 426.186 475.007 428.266 475.423 430.347V424.522H461.276V423.689H475.423V417.032C475.423 420.777 472.926 422.025 470.014 422.441H461.276V402.053H473.342C480 402.885 482.912 408.294 484.16 412.871V401.221Z" fill="#FF874B"/>
<path d="M346.453 400.389C321.918 400.389 322.721 446.574 346.453 446.158C370.571 446.574 370.982 400.389 346.453 400.389Z" fill="#374151"/>
<circle cx="94.2913" cy="414.118" r="2.08041" fill="#FF874B"/>
<circle cx="86.7992" cy="430.346" r="2.08041" fill="#FF874B"/>
<circle cx="104.268" cy="403.301" r="2.08041" fill="#FF874B"/>
<circle cx="119.252" cy="403.301" r="2.08041" fill="#FF874B"/>
<circle cx="134.237" cy="434.922" r="2.08041" fill="#FF874B"/>
<circle cx="168.362" cy="403.301" r="2.08041" fill="#FF874B"/>
<circle cx="212.869" cy="413.285" r="2.08041" fill="#FF874B"/>
<circle cx="188.737" cy="433.258" r="2.08041" fill="#FF874B"/>
<path d="M225.289 404.14C231.114 398.731 243.596 399.563 250.67 404.14V414.126C249.421 409.133 247.757 404.14 241.932 402.476C238.187 401.406 233.194 401.227 230.282 404.14C226.953 407.469 226.953 410.381 230.282 414.542C238.603 422.031 248.589 424.944 252.334 434.098C253.166 441.171 251.502 445.748 243.18 448.245C234.026 449.909 229.033 448.245 222.376 444.916V433.266C224.873 441.171 226.537 444.916 232.778 446.581C236.939 447.692 239.852 447.412 243.18 446.581C249.005 444.084 248.808 436.598 245.261 433.266C231.53 420.367 214.887 417.871 225.289 404.14Z" fill="#FF874B"/>
<circle cx="248.588" cy="413.709" r="2.08041" fill="#FF874B"/>
<circle cx="284.026" cy="403.301" r="2.08041" fill="#FF874B"/>
<circle cx="319.799" cy="403.301" r="2.08041" fill="#FF874B"/>
<circle cx="370.565" cy="403.301" r="2.08041" fill="#FF874B"/>
<circle cx="387.213" cy="403.301" r="2.08041" fill="#FF874B"/>
<circle cx="451.291" cy="403.301" r="2.08041" fill="#FF874B"/>
<circle cx="224.448" cy="433.682" r="2.08041" fill="#FF874B"/>
<path d="M421.679 404.14C427.504 398.731 439.987 399.563 447.06 404.14V414.126C445.812 409.133 444.148 404.14 438.323 402.476C434.578 401.406 429.585 401.227 426.672 404.14C423.344 407.469 423.344 410.381 426.672 414.542C434.994 422.031 444.98 424.944 448.725 434.098C449.557 441.171 447.892 445.748 439.571 448.245C430.417 449.909 425.424 448.245 418.767 444.916V433.266C421.263 441.171 422.928 444.916 429.169 446.581C433.33 447.692 436.242 447.412 439.571 446.581C445.396 444.084 445.198 436.598 441.651 433.266C427.921 420.367 411.277 417.871 421.679 404.14Z" fill="#FF874B"/>
<circle cx="444.971" cy="413.709" r="2.08041" fill="#FF874B"/>
<circle cx="420.838" cy="433.682" r="2.08041" fill="#FF874B"/>
<rect x="149.633" y="295.535" width="8.32163" height="8.32163" fill="#FF874B"/>
<rect x="165.438" y="295.535" width="8.32163" height="8.32163" fill="#1339C0"/>
<rect x="149.633" y="310.518" width="8.32163" height="8.32163" fill="#1339C0"/>
<rect x="165.438" y="310.518" width="8.32163" height="8.32163" fill="#FF874B"/>
<rect x="360.164" y="295.535" width="8.32163" height="8.32163" fill="#1339C0"/>
<rect x="375.977" y="295.535" width="8.32163" height="8.32163" fill="#FF874B"/>
<rect x="360.164" y="310.518" width="8.32163" height="8.32163" fill="#FF874B"/>
<rect x="375.977" y="310.518" width="8.32163" height="8.32163" fill="#1339C0"/>
<path d="M162.943 251.012L4 322.578H26.8845C36.0383 322.578 41.0313 322.994 46.8564 320.497L163.775 266.406C166.688 265.158 168.352 265.158 170.849 266.406L245.743 305.518C249.904 307.599 252.401 308.015 255.313 306.35L264.883 300.941C268.212 299.277 268.212 298.861 264.883 297.196L173.761 251.012C170.849 248.931 166.688 248.931 162.943 251.012Z" fill="#737373"/>
<path d="M360.166 260.165L239.086 322.161H261.555C265.299 322.161 266.964 321.745 269.876 320.913L362.662 273.48C365.991 272.232 368.488 272.232 370.984 273.48L477.917 323.41L507.875 322.161L371.816 260.165C368.488 258.085 364.327 258.085 360.166 260.165Z" fill="#737373"/>
<path d="M84.7236 279.723L78.8984 281.387V204.83L109.272 184.442L138.398 205.662V216.896L151.713 208.575L166.276 221.057V196.924C166.276 194.012 166.276 192.347 169.188 189.851L197.898 169.879C200.81 167.799 202.891 168.631 204.971 169.879L215.373 177.368V125.774C215.373 122.03 214.957 119.533 217.87 117.037L226.607 111.211C229.936 108.715 232.016 106.217 232.016 102.058V88.3269C232.016 84.5822 231.184 82.0857 234.097 78.341L254.485 64.1929C259.478 60.8693 264.055 61.6977 267.383 64.1929L289.436 78.3397C294.429 80.8362 296.093 83.3327 296.093 86.6613V109.962L307.743 117.451L308.575 161.972L328.131 172.79V165.301C328.131 163.636 328.131 162.388 329.38 161.14L357.257 141.168C360.17 139.088 362.666 139.504 365.163 141.168L390.127 157.395C393.872 159.06 397.201 161.972 397.617 165.717V213.982L405.939 208.573L442.554 232.29V285.548L407.187 269.321L405.939 221.056L397.617 226.465V263.912L369.323 251.846H361.002V150.322L336.037 166.965V177.783L349.768 186.937V257.671L338.949 263.912V189.017L328.963 183.192V269.321L301.502 281.804V123.276L291.932 118.283V288.045L282.778 292.622V112.042L271.96 106.217V292.622L260.31 287.213V70.8502L240.338 84.1648V215.647H232.433V118.283L224.527 123.276V268.489L201.226 257.671V177.783L177.094 194.843V244.772L168.772 241.028L148.8 249.765V218.559L127.164 232.29V260.167L106.776 269.737V194.843L84.7236 208.989V279.723Z" fill="#E8AB16"/>
<path d="M126.329 336.312H148.797L145.469 339.225V388.323L148.797 391.235H132.154L135.067 388.323V371.679H125.081V388.323L127.993 391.235H108.438L114.679 388.323V349.627C114.679 344.634 118.84 338.393 126.329 336.312Z" fill="#737373"/>
<path d="M194.982 336.312H178.755L181.668 337.977V375.008C181.668 379 176.675 380.833 172.098 380.833L170.018 377.921V393.732L172.93 391.235C184.997 391.235 192.07 385.41 192.07 377.089V337.977L194.982 336.312Z" fill="#737373"/>
<path d="M250.737 336.312H217.035L219.115 339.225V388.739L215.787 391.235H250.737V377.089L248.241 380.833H229.933V368.351H246.577V358.365H229.933V346.715H248.241L250.737 349.211V336.312Z" fill="#737373"/>
<path d="M289.433 336.312H275.286L277.783 337.977V388.323L274.454 391.235H291.097L288.601 388.323L288.185 360.445L302.332 391.235H316.062L312.318 387.907V339.225L316.062 336.312H299.835L302.332 339.225V366.686L289.433 336.312Z" fill="#737373"/>
<path d="M360.167 336.312H338.115L340.611 338.809V388.323L338.115 391.235H360.167C368.072 391.235 370.985 384.994 370.985 379.169V347.547C370.985 342.97 367.24 336.312 360.167 336.312Z" fill="#737373"/>
<path d="M398.03 338.809L395.118 336.312H418.002C434.646 340.473 434.229 362.526 419.25 367.519L432.981 391.235H418.002L419.25 389.155L408.016 368.767V388.323L410.929 391.235H395.118L398.03 388.323V338.809Z" fill="#737373"/>
<path d="M50.9125 338.496L48 336H70.8845C87.5277 340.161 87.1116 362.213 72.1327 367.206L85.8634 390.923H70.8845L72.1327 388.842L60.8985 368.454V388.01L63.8111 390.923H48L50.9125 388.01V338.496Z" fill="#737373"/>
<path d="M125.086 351.71V360.864H135.072V346.301H129.247C125.918 346.301 125.086 349.629 125.086 351.71Z" fill="#374151"/>
<path d="M351.018 380.836V346.717H357.676C361.004 347.133 361.836 349.213 361.836 350.878V375.426C361.836 378.755 361.004 380.003 358.508 380.836H351.018Z" fill="#374151"/>
<path d="M408.021 358.367V346.717H414.679C419.672 346.717 421.336 357.119 414.679 358.367H408.021Z" fill="#374151"/>
<path d="M61 357.65V346H67.6573C72.6503 346 74.3146 356.402 67.6573 357.65H61Z" fill="#374151"/>
<path d="M469.595 336.312H492.063L488.734 339.225V388.323L492.063 391.235H475.42L478.332 388.323V371.679H468.346V388.323L471.259 391.235H451.703L457.944 388.323V349.627C457.944 344.634 462.105 338.393 469.595 336.312Z" fill="#737373"/>
<path d="M468.344 351.706V360.86H478.33V346.297H472.505C469.176 346.297 468.344 349.626 468.344 351.706Z" fill="#374151"/>
<rect x="292.758" y="426.186" width="18.3076" height="0.832163" fill="#FF874B"/>
<rect x="326.883" y="423.688" width="38.2795" height="0.832163" fill="#FF874B"/>
<rect x="326.883" y="425.354" width="38.2795" height="0.832163" fill="#FF874B"/>
<rect x="152.266" y="425.633" width="19.033" height="1.00174" fill="#FF874B"/>
<rect x="151.25" y="427.635" width="19.033" height="1.00174" fill="#FF874B"/>
</svg>
